<svg width="74" height="24" viewBox="0 0 74 24" fill="none" xmlns="http://www.w3.org/2000/svg">
<path d="M8.032 6.768V14.416C8.032 15.6 7.696 16.512 7.024 17.152C6.36267 17.792 5.46667 18.112 4.336 18.112C3.152 18.112 2.20267 17.776 1.488 17.104C0.773333 16.432 0.416 15.4773 0.416 14.24H3.136C3.136 14.7093 3.232 15.0667 3.424 15.312C3.616 15.5467 3.89333 15.664 4.256 15.664C4.58667 15.664 4.84267 15.5573 5.024 15.344C5.20533 15.1307 5.296 14.8213 5.296 14.416V6.768H8.032ZM17.234 16.016H13.042L12.37 18H9.506L13.57 6.768H16.738L20.802 18H17.906L17.234 16.016ZM16.53 13.904L15.138 9.792L13.762 13.904H16.53ZM32.0869 18H29.3509L24.7749 11.072V18H22.0389V6.768H24.7749L29.3509 13.728V6.768H32.0869V18ZM42.1501 6.768V8.96H39.1741V18H36.4381V8.96H33.4621V6.768H42.1501ZM50.5153 16.016H46.3233L45.6513 18H42.7873L46.8513 6.768H50.0193L54.0833 18H51.1873L50.5153 16.016ZM49.8113 13.904L48.4193 9.792L47.0433 13.904H49.8113ZM64.9521 6.768L61.0641 14.288V18H58.3281V14.288L54.4401 6.768H57.5441L59.7201 11.472L61.8801 6.768H64.9521Z" fill="black"/>
<circle cx="70" cy="6" r="4" fill="#4285F4"/>
</svg>
