<svg width="24" height="24" viewBox="0 0 24 24" fill="none" xmlns="http://www.w3.org/2000/svg">
<g clip-path="url(#clip0_628_298)">
<path d="M12 0C18.6275 0 24 5.50807 24 12.3029C24 17.7653 20.5264 22.3941 15.7207 24C15.7221 23.9957 15.7242 23.9884 15.7242 23.9884C15.7242 23.9884 14.9146 23.5991 14.9315 22.9043C14.9506 22.1401 14.9315 20.3562 14.9315 19.7012C14.9315 18.5773 14.2376 17.7805 14.2376 17.7805C14.2376 17.7805 19.6793 17.8435 19.6793 11.8904C19.6793 9.59334 18.5082 8.39852 18.5082 8.39852C18.5082 8.39852 19.1231 5.94663 18.2951 4.90667C17.3668 4.80391 15.7052 5.81636 14.9951 6.28894C14.9951 6.28894 13.8706 5.81636 11.9993 5.81636C10.1287 5.81636 9.00353 6.28894 9.00353 6.28894C8.29412 5.81636 6.63176 4.80391 5.70353 4.90667C4.87553 5.94663 5.49035 8.39852 5.49035 8.39852C5.49035 8.39852 4.31929 9.59407 4.31929 11.8904C4.31929 17.8435 9.76094 17.7805 9.76094 17.7805C9.76094 17.7805 9.21247 18.4159 9.09318 19.3495C8.71341 19.482 8.15435 19.6448 7.70329 19.6448C6.52235 19.6448 5.62377 18.4681 5.29482 17.9231C4.97012 17.3861 4.30447 16.9353 3.68471 16.9353C3.276 16.9353 3.07694 17.1444 3.07694 17.384C3.07694 17.6235 3.64941 17.7907 4.02777 18.2343C4.82471 19.1708 4.81059 21.2753 7.65035 21.2753C7.95882 21.2753 8.58847 21.1978 9.06212 21.132C9.05929 21.7949 9.05859 22.494 9.06847 22.9029C9.08541 23.5976 8.27577 23.987 8.27577 23.987C8.27577 23.987 8.27788 23.9942 8.27929 23.9986C3.47365 22.3941 0 17.7653 0 12.3029C0 5.50807 5.37247 0 12 0Z" fill="white"/>
</g>
<defs>
<clipPath id="clip0_628_298">
<rect width="24" height="24" fill="white"/>
</clipPath>
</defs>
</svg>
