<svg width="24" height="24" viewBox="0 0 24 24" fill="none" xmlns="http://www.w3.org/2000/svg">
<g clip-path="url(#clip0_628_321)">
<path d="M23.4561 4.44298C23.0791 4.61021 22.6915 4.75134 22.2954 4.86593C22.7643 4.3356 23.1218 3.7116 23.3401 3.02876C23.389 2.87571 23.3383 2.70817 23.2125 2.60807C23.0869 2.50789 22.9123 2.49589 22.7739 2.57787C21.9328 3.07676 21.0253 3.43529 20.0737 3.64494C19.1152 2.70833 17.8133 2.17529 16.4674 2.17529C13.6265 2.17529 11.3152 4.48649 11.3152 7.32732C11.3152 7.55106 11.3294 7.77356 11.3574 7.99297C7.83215 7.68345 4.55475 5.95073 2.30417 3.19003C2.22396 3.09163 2.1004 3.0386 1.9739 3.04874C1.84732 3.05865 1.73359 3.13003 1.66964 3.23973C1.21318 4.02298 0.971862 4.9188 0.971862 5.83026C0.971862 7.07168 1.41509 8.24954 2.19803 9.1699C1.95996 9.08745 1.72895 8.9844 1.50846 8.862C1.39008 8.79612 1.24562 8.79713 1.12802 8.86456C1.01034 8.93199 0.936558 9.05602 0.933462 9.19158C0.93292 9.21442 0.93292 9.23725 0.93292 9.2604C0.93292 11.1134 1.93024 12.7817 3.45501 13.691C3.32402 13.678 3.1931 13.659 3.06304 13.6341C2.92895 13.6085 2.79106 13.6555 2.70064 13.7578C2.61006 13.86 2.58009 14.0024 2.62182 14.1325C3.18621 15.8945 4.63929 17.1906 6.39594 17.5858C4.93898 18.4983 3.27284 18.9763 1.52378 18.9763C1.15883 18.9763 0.791784 18.9549 0.432558 18.9124C0.254107 18.8911 0.0834745 18.9965 0.0227003 19.1662C-0.0380739 19.336 0.026339 19.5253 0.178158 19.6226C2.4251 21.0633 5.02322 21.8248 7.69147 21.8248C12.9369 21.8248 16.2184 19.3512 18.0474 17.2762C20.3282 14.6887 21.6362 11.2639 21.6362 7.88002C21.6362 7.73865 21.6341 7.59589 21.6297 7.45359C22.5296 6.77563 23.3043 5.95514 23.9348 5.01209C24.0305 4.86887 24.0201 4.67958 23.9092 4.54773C23.7984 4.41581 23.6138 4.37315 23.4561 4.44298Z" fill="white"/>
</g>
<defs>
<clipPath id="clip0_628_321">
<rect width="24" height="24" fill="white"/>
</clipPath>
</defs>
</svg>
